<svg enable-background="new 0 0 376 250" viewBox="0 0 376 250" xmlns="http://www.w3.org/2000/svg"><path d="m0 0h376v250h-376z" fill="#f9b748"/><path d="m98.9 140.4c0-1.3-.3-2.3-1-3.1s-1.9-1.5-3.6-2.3c-3.5-1.2-6.1-2.6-7.9-4.2-1.7-1.5-2.6-3.7-2.6-6.5s1-5 3.1-6.7c2-1.7 4.6-2.6 7.8-2.6s5.8 1 7.8 2.9 3 4.4 2.9 7.3v.1h-6.4c0-1.5-.4-2.8-1.2-3.7-.8-1-1.9-1.4-3.3-1.4-1.3 0-2.3.4-3.1 1.2-.7.8-1.1 1.8-1.1 3 0 1.1.4 2 1.2 2.7s2.2 1.5 4.3 2.4c3.2 1.1 5.6 2.4 7.2 4.1s2.4 3.9 2.4 6.7c0 2.9-1 5.2-2.9 6.8s-4.5 2.5-7.7 2.5-6-.9-8.3-2.8c-2.4-1.9-3.5-4.6-3.4-8.1v-.1h6.4c0 2.1.4 3.6 1.3 4.5s2.2 1.4 4 1.4c1.4 0 2.4-.4 3.1-1.1s1-1.7 1-3z"/><path d="m113.8 137.1v12.1h-6.6v-33.7h11.7c3.4 0 6 1 8 3 1.9 2 2.9 4.6 2.9 7.8s-1 5.8-2.9 7.8c-2 2-4.6 3-7.9 3zm0-5.2h5.1c1.4 0 2.5-.5 3.2-1.6.7-1 1.1-2.3 1.1-3.9s-.4-2.9-1.1-4-1.8-1.6-3.2-1.6h-5.1z"/><path d="m138.5 149.2h-6.5v-33.7h6.5z"/><path d="m162.7 138.4.1.1c0 3.7-.8 6.5-2.6 8.4s-4.4 2.8-7.9 2.8-6.3-1.1-8.3-3.2c-2.1-2.1-3.1-5.2-3.1-9.1v-10.1c0-3.9 1-6.9 3-9.1s4.7-3.2 8.1-3.2c3.6 0 6.3 1 8.1 2.9s2.8 4.7 2.8 8.5l-.1.1h-6.3c.1-2.2-.2-3.8-.9-4.8s-1.9-1.5-3.6-1.5c-1.5 0-2.6.6-3.4 1.7-.8 1.2-1.2 2.9-1.2 5.3v10.1c0 2.4.4 4.1 1.3 5.3.8 1.2 2.1 1.7 3.7 1.7s2.7-.5 3.3-1.4.9-2.5.8-4.7h6.2z"/><path d="m174.8 130h.1l5.6-14.4h7.1l-9.6 21.7v12h-6.6v-12.4l-9.5-21.3h7.2z"/><path d="m211 140.4c0-1.3-.3-2.3-1-3.1s-1.9-1.5-3.6-2.3c-3.5-1.2-6.1-2.6-7.9-4.2-1.7-1.5-2.6-3.7-2.6-6.5s1-5 3.1-6.7c2-1.7 4.6-2.6 7.8-2.6s5.8 1 7.8 2.9 3 4.4 2.9 7.3v.1h-6.4c0-1.5-.4-2.8-1.2-3.7-.8-1-1.9-1.4-3.3-1.4-1.3 0-2.3.4-3.1 1.2-.7.8-1.1 1.8-1.1 3 0 1.1.4 2 1.2 2.7s2.2 1.5 4.3 2.4c3.2 1.1 5.6 2.4 7.2 4.1s2.4 3.9 2.4 6.7c0 2.9-1 5.2-2.9 6.8s-4.5 2.5-7.7 2.5-6-.9-8.3-2.8c-2.4-1.9-3.5-4.6-3.4-8.1v-.1h6.4c0 2.1.4 3.6 1.3 4.5s2.2 1.4 4 1.4c1.4 0 2.4-.4 3.1-1.1s1-1.7 1-3z"/><path d="m226.2 149.2h-6.5v-33.7h6.5z"/><path d="m236 143.4c.7.7 1.7 1.1 3.1 1.1 1.8 0 3.1-.5 4-1.4s1.3-2.4 1.3-4.5h6.4v.1c.1 3.5-1.1 6.2-3.4 8.1-2.4 1.9-5.1 2.8-8.3 2.8s-5.8-.8-7.7-2.5c-1.9-1.6-2.9-3.9-2.9-6.8 0-2.8.8-5.1 2.4-6.7 1.6-1.7 4-3 7.2-4.1 2-.9 3.4-1.7 4.3-2.4.8-.7 1.2-1.6 1.2-2.7 0-1.2-.4-2.2-1.1-3s-1.8-1.2-3.1-1.2c-1.4 0-2.5.5-3.3 1.4-.8 1-1.2 2.2-1.2 3.7h-6.4v-.1c-.1-2.9.9-5.4 2.9-7.3s4.6-2.9 7.8-2.9 5.8.9 7.8 2.6 3.1 4 3.1 6.7c0 2.8-.9 5-2.6 6.5s-4.4 2.9-7.9 4.2c-1.7.7-2.9 1.5-3.6 2.3s-1 1.8-1 3.1.3 2.3 1 3z"/><path d="m272.4 120.8h-7.6v28.4h-6.6v-28.4h-7.5v-5.2h21.7z"/><path d="m286.5 142h-8.9l-1.8 7.2h-6.6l9.5-33.7h6.8l9.5 33.7h-6.6zm-7.5-5.2h6.2l-3-11.9h-.2z"/></svg>