<svg enable-background="new 0 0 376 250" viewBox="0 0 376 250" xmlns="http://www.w3.org/2000/svg"><path d="m0 0h376v250h-376z" fill="#0a51a1"/><g fill="#f9f9f9"><path d="m214.6 146.1 12.4 9h14.6l-7.6-23.3 17.2-13.2v-7.2l-23.9 17.9 8.2 25.1-20.9-15.8-21.4 15.8 7.8-26-22.7-16.9h27.8l7.4-24.1 7.7 24.1h29.9v-6.4h-26.1l-5.9-18.1h-62.2c-3.3 0-6.1 2-7.3 4.9-.2.3-.3.7-.4 1l-6.4 20.2 24.8 18.6h-24.8-.1c-3.4 0-6.3 2.2-7.3 5.2-.4 1-.7 2.1-1.2 3.7-1.6 4.8-3.1 9.7-4.5 14.5h73.6z"/><path d="m199 180.5 3.6-15.9h4.6l1.1-4.9h-15.3l-1.1 4.9c-.7-2.9-3.1-4.9-6.4-4.9h-11l-4.7 20.8h6.1l3.6-15.9h3.4c1.6 0 2.7 1.3 2.4 3-.3 1.6-2.3 3.1-3.9 3.1-.7 0-1.8-.1-2.3-.1l-1.2 5.1c.9.8 5.2 4.2 10.4 4.9l1.2-5.4c-.7 0-2.9-.9-3.7-1.4 2.9-.9 5.6-2.9 6.2-6.1.2-1 .2-2-.1-3h4.6l-3.5 15.9h6z"/><path d="m139.6 177.7c2.5-3.1 2.2-7 0-8.5-.7-.6-3-2-4.1-2.5s-1.1-2.1.7-2.1h10.6l-3.5 15.9h6.1l3.5-15.9h4.2l1.1-4.9h-22.3c-2.1 0-6.6 1.3-7.4 4.8-.9 4.3 1 5.4 2.4 6.2 1.5.8 4.6 2.1 4.3 3.3-.4 1.2-2.2 1.6-4 1.6-1.3 0-3.4 0-5-.1l-1.1 4.9c4.4.3 11.9.4 14.5-2.7"/><path d="m169.5 180.5c.6-4.7-.2-16.3-2.6-20.8h-5.4c-3.2 2.4-10.6 15.7-11.9 20.8h5.9c.8-3.3 4.2-9.9 7.3-14.9.4 2.3.7 4.7.9 7.2h-4c-.8 1.6-1.5 3.1-2.1 4.4h6.3c0 1.3-.1 2.4-.2 3.3z"/><path d="m246.2 174.7c1.4 0 2.5 1.1 2.5 2.4 0 1.4-1.1 2.5-2.5 2.5s-2.5-1.1-2.5-2.5c-.1-1.4 1.1-2.4 2.5-2.4m0 5.4c1.7 0 3.1-1.4 3.1-3.1s-1.4-3-3.1-3-3.1 1.4-3.1 3c-.1 1.8 1.3 3.1 3.1 3.1"/><path d="m245.5 175.8h.9c.4 0 .8.1.8.5 0 .6-.7.5-1.2.5h-.6v-1zm0 1.4h.6l1 1.6h.6l-1.1-1.6c.6 0 1.1-.3 1.1-.9 0-.3-.1-.6-.4-.7s-.6-.2-.9-.2h-1.4v3.4h.5z"/><path d="m213.5 170.5h9l1.1-4.9h-8.9z"/><path d="m243.2 167.6c.8-4.3-2.1-7.9-6.5-7.9h-11l-3.6 15.9h-10.6l2.5-11h8.8l1.1-4.9h-14.9l-4.7 20.8h16.7 1.7 4.4l3.6-15.9h3.4c1.6 0 2.7 1.3 2.5 3-.3 1.6-2.3 3.1-3.9 3.1-.7 0-1.8-.1-2.3-.2l-1.2 5.1c.9.8 5.2 4.2 10.4 4.9l1.2-5.4c-.7 0-2.9-.9-3.7-1.4 2.9-.9 5.5-2.9 6.1-6.1"/></g></svg>