<svg enable-background="new 0 0 376 250" viewBox="0 0 376 250" xmlns="http://www.w3.org/2000/svg"><path d="m0 0h376v250h-376z" fill="#282828"/><g fill="#f9f9f9"><path d="m170.5 170.6c0 .9-.8 1.7-1.7 1.7s-1.7-.7-1.7-1.7v-5.6h1v5.5c0 .5.3.8.6.8.4 0 .6-.2.6-.8v-5.5h1v5.6z"/><path d="m176.6 165h1.7c1.2 0 1.8.7 1.8 2.1 0 .8-.2 1.4-.9 1.8l1.1 3.3h-1.1l-1-3.1h-.6v3.1h-1zm1 3.3h.6c.7 0 .8-.4.8-1.1s-.1-1.1-.9-1.1h-.5z"/><path d="m186 165h1.5c1.3 0 1.8.9 1.8 1.8v.3c0 .8-.3 1.1-.7 1.3.5.2.7.7.7 1.4v.4c0 1.3-.6 2-1.9 2h-1.4zm1.1 3h.5c.7 0 .9-.4.9-1s-.2-1-.9-1h-.4v2zm0 3.2h.4c.8 0 .9-.5.9-1.2s-.1-1.1-.9-1.1h-.5v2.3z"/><path d="m196.5 165h.9l1.6 7.3h-1l-.3-1.6h-1.4l-.3 1.6h-1zm.5 2.1-.5 2.6h1z"/><path d="m204.6 165h1l1.6 4.4v-4.4h1v7.3h-1l-1.6-4.4v4.4h-1z"/><path d="m145.5 176.2h1.5c1.3 0 1.8.9 1.8 1.8v.3c0 .8-.3 1.1-.7 1.3.5.2.7.7.7 1.4v.4c0 1.3-.6 2-1.9 2h-1.4zm1 3h.5c.7 0 .9-.4.9-1s-.2-1-.9-1h-.4v2zm0 3.2h.4c.8 0 .9-.5.9-1.2s-.1-1.1-.9-1.1h-.5v2.3z"/><path d="m156 176.2h.9l1.6 7.3h-1l-.3-1.6h-1.4l-.3 1.6h-1zm.4 2.1-.5 2.6h1z"/><path d="m167.4 181.8c0 .9-.7 1.7-1.7 1.7-.8 0-1.7-.4-1.7-1.7v-4c0-.9.7-1.7 1.7-1.7s1.7.7 1.7 1.7v.4h-1v-.3c0-.4-.2-.8-.6-.8-.5 0-.6.4-.6.8v3.7c0 .4.2.7.6.7.3 0 .7-.2.7-.7v-.4h1v.6z"/><path d="m173.3 176.2h1v3.3l1.5-3.3h1l-1.4 2.9 1.7 4.4h-1.1l-1.2-3.2-.6 1.1v2.2h-1v-7.4z"/><path d="m182.6 182.5 1.9-3.5c.2-.4.2-.6.2-1s0-.8-.5-.8c-.3 0-.5.2-.5.5v.6h-1v-.6c0-.9.7-1.6 1.6-1.6 1.1 0 1.5.9 1.5 1.8 0 .7 0 .9-.3 1.5l-1.5 2.9h1.9v1h-3.1v-.8z"/><path d="m191.7 176.2h1.5c1.3 0 1.8.9 1.8 1.8v.3c0 .8-.3 1.1-.7 1.3.5.2.7.7.7 1.4v.4c0 1.3-.6 2-1.9 2h-1.4zm1 3h.5c.7 0 .9-.4.9-1s-.2-1-.9-1h-.4v2zm0 3.2h.4c.8 0 .9-.5.9-1.2s-.1-1.1-.9-1.1h-.5v2.3z"/><path d="m202.1 176.2h.9l1.6 7.3h-1l-.3-1.6h-1.4l-.3 1.6h-1zm.5 2.1-.5 2.6h1z"/><path d="m213.6 178.3h-1v-.2c0-.5-.2-.9-.7-.9-.6 0-.7.5-.7.9 0 .6.1.8.6 1l.8.3c.9.3 1.1.9 1.1 2 0 1.2-.4 2.1-1.8 2.1-1 0-1.8-.7-1.8-1.7v-.4h1v.3c0 .4.2.7.7.7.7 0 .8-.4.8-1.1 0-.8-.1-.9-.6-1.1l-.7-.3c-.9-.4-1.1-1-1.1-1.9 0-1.1.6-2 1.8-2 1 0 1.7.8 1.7 1.6v.7z"/><path d="m219.5 176.2h1v7.3h-1z"/><path d="m230 181.8c0 .9-.7 1.7-1.7 1.7-.8 0-1.7-.4-1.7-1.7v-4c0-1 .7-1.7 1.7-1.7s1.7.7 1.7 1.7v.4h-1v-.3c0-.4-.2-.8-.6-.8-.5 0-.6.4-.6.8v3.7c0 .4.2.7.6.7.3 0 .7-.2.7-.7v-.4h1v.6z"/><path d="m158.2 193c0 .9-.7 1.7-1.7 1.7-.8 0-1.7-.4-1.7-1.7v-4c0-.9.7-1.7 1.7-1.7s1.7.7 1.7 1.7v.4h-1v-.3c0-.4-.2-.8-.6-.8-.5 0-.6.4-.6.8v3.7c0 .4.2.7.6.7.3 0 .7-.2.7-.7v-.4h1v.6z"/><path d="m164.1 187.4h1v6.2h2.1v1h-3.1z"/><path d="m172.9 189.1c0-1.2.9-1.8 1.7-1.8s1.7.6 1.7 1.8v3.8c0 1.2-.9 1.8-1.7 1.8s-1.7-.6-1.7-1.8zm1.1 3.8c0 .5.3.7.7.7s.7-.2.7-.7v-3.8c0-.5-.3-.7-.7-.7s-.7.2-.7.7z"/><path d="m183 188.4h-1.2v-1h3.4v1h-1.2v6.3h-1z"/><path d="m190.8 187.4h1v3.1h1.3v-3.1h1v7.3h-1v-3.2h-1.3v3.2h-1z"/><path d="m200.3 187.4h1v7.3h-1z"/><path d="m207.4 187.4h1l1.6 4.4v-4.4h1v7.3h-1l-1.6-4.4v4.4h-1z"/><path d="m217 189.1c0-1.2.9-1.8 1.7-1.8s1.7.6 1.7 1.8v.4h-1v-.4c0-.5-.3-.7-.7-.7s-.7.2-.7.7v3.8c0 .5.3.7.7.7s.7-.2.7-.7v-1.4h-.8v-.9h1.9v2.3c0 1.2-.9 1.8-1.7 1.8s-1.7-.6-1.7-1.8v-3.8z"/><path d="m153.7 100.5h-3.5-2.5c-.5 0-.8-.2-1.1-.5s-.5-.7-.5-1.1v-30.6c0-.4.1-.8.5-1.1.3-.3.7-.5 1.1-.5h2.5 3.5c.9 0 1.8.2 2.7.5s1.7.8 2.4 1.5 1.3 1.5 1.7 2.5.7 2.2.7 3.6v17.5c0 1.4-.2 2.6-.7 3.7-.4 1-1 1.9-1.7 2.5-.7.7-1.5 1.2-2.4 1.5-.9.4-1.8.5-2.7.5zm-4.4-3.2h.9 3.5c1.1 0 2.1-.3 2.8-1 .9-.9 1.4-2.2 1.4-3.9v-17.5c0-1.7-.5-3-1.4-3.9-.8-.7-1.7-1-2.8-1h-3.5-.9z"/><path d="m181.4 99.1c.1.4 0 .8-.2 1.2-.2.3-.6.6-1 .7h-.2c-.3 0-.6-.1-.9-.3s-.5-.5-.5-.8l-1.2-5.9h-7.4l-1.2 5.9c-.1.3-.2.6-.5.8s-.6.3-1 .3h-.3c-.4-.1-.7-.3-.9-.7-.2-.3-.3-.7-.2-1.2l6.3-31.4c0-.1.1-.2.1-.2.1-.2.1-.3.2-.3v-.2c.1-.1.1-.1.2-.1s.1-.1.2-.1h.2.2.1.2.2c.1 0 .2.1.3.1s.1.1.2.1v.1c0 .1.1.1.1.2 0 0 .1.1.1.2v.2zm-4.7-8.2-3.1-15.4-3 15.4z"/><path d="m189.2 100.5c-.5 0-.8-.2-1.1-.5s-.5-.7-.5-1.1v-30.6c0-.4.2-.8.5-1.1s.7-.5 1.1-.5.8.2 1.1.5.5.7.5 1.1v30.6c0 .4-.2.8-.5 1.1-.4.4-.7.5-1.1.5z"/><path d="m211 100.5h-12.1c-.4 0-.8-.2-1.1-.5s-.5-.7-.5-1.1v-30.6c0-.4.2-.8.5-1.1s.7-.5 1.1-.5c.5 0 .8.2 1.1.5s.5.7.5 1.1v29h10.5c.4 0 .8.2 1.1.5s.5.7.5 1.2c0 .4-.2.8-.5 1.1-.4.3-.7.4-1.1.4z"/><path d="m228.4 66.9c.4.2.7.4.9.8s.2.8 0 1.2l-5.8 14.5v15.4c0 .5-.2.8-.5 1.1s-.7.5-1.1.5-.8-.2-1.1-.5-.5-.7-.5-1.1v-15.3l-5.8-14.5c-.1-.4-.1-.8 0-1.2.2-.4.5-.7.9-.8.4-.2.8-.2 1.3 0 .4.2.7.5.8.9l4.4 11.1 4.4-11.1c.1-.4.4-.7.8-.9.4-.3.8-.3 1.3-.1z"/><path d="m153.1 146.1c-2.1 0-3.9-.6-5.4-1.8-.6-.5-1.1-1.2-1.7-2.2s-.8-2.3-.8-4c0-.5.2-.8.5-1.1s.7-.5 1.2-.5c.4 0 .8.2 1.1.5s.5.7.5 1.1c0 1 .1 1.8.4 2.5.3.6.7 1.1 1.1 1.5.5.4 1 .6 1.5.7.6.1 1.1.2 1.7.2.3 0 .7 0 1.3-.1s1.1-.3 1.7-.6c.5-.3 1-.8 1.4-1.5.4-.6.6-1.5.6-2.7 0-1.1-.2-2.1-.5-3-.3-.8-.8-1.6-1.3-2.3-.6-.7-1.2-1.3-1.9-1.8-.7-.6-1.5-1.1-2.3-1.7-.7-.5-1.5-1.1-2.2-1.6-.7-.6-1.4-1.2-2-1.9-1.4-1.7-2.2-3.6-2.2-5.8 0-.1 0-.4 0-.7 0-.4.1-.8.2-1.3.3-1.5.9-2.8 1.8-3.9 1.4-1.4 3.2-2.1 5.5-2.1s4.1.7 5.4 2.1c.5.5.8 1.1 1.1 1.8s.4 1.4.5 2.2c.1.5.1 1 .1 1.4s0 .6-.1.7c-.1.4-.2.7-.3 1-.2.2-.3.5-.5.6-.2.2-.5.2-1 .2-.4-.1-.7-.2-.9-.5s-.3-.5-.4-.8-.1-.7 0-1c.1-.4.1-.8 0-1.2-.1-.3-.2-.7-.3-1.1s-.3-.8-.6-1.1c-.6-.7-1.6-1.1-3-1.1s-2.4.4-3.1 1.2c-.3.3-.6.7-.7 1.1-.2.4-.3.8-.3 1.1-.1.4-.1.8-.1 1.2v.1c0 .8.1 1.4.4 2 .2.6.6 1.2 1 1.7s1 1 1.6 1.5 1.3 1 2.1 1.6c.9.6 1.7 1.2 2.6 1.8.8.6 1.6 1.4 2.3 2.3 1.6 2 2.4 4.4 2.4 7.1 0 1.4-.2 2.6-.7 3.6s-1.1 1.8-1.9 2.5-1.7 1.1-2.6 1.5c-1.2.5-2.2.6-3.2.6z"/><path d="m179.7 112.1c.4 0 .8.2 1.1.5s.5.7.5 1.1v30.6c0 .4-.2.8-.5 1.1s-.7.5-1.1.5c-.5 0-.8-.2-1.2-.5-.3-.3-.5-.7-.5-1.1v-11.8h-9.5v11.8c0 .4-.2.8-.5 1.1s-.7.5-1.2.5c-.4 0-.8-.2-1.1-.5s-.5-.7-.5-1.1v-30.6c0-.4.2-.8.5-1.1s.7-.5 1.1-.5c.5 0 .8.2 1.2.5.3.3.5.7.5 1.1v15.6h9.5v-15.6c0-.4.2-.8.5-1.1s.7-.5 1.2-.5z"/><path d="m188.8 145.9c-.5 0-.8-.2-1.1-.5s-.5-.7-.5-1.1v-30.6c0-.4.2-.8.5-1.1s.7-.5 1.1-.5.8.2 1.1.5.5.7.5 1.1v30.6c0 .4-.2.8-.5 1.1-.3.4-.7.5-1.1.5z"/><path d="m212.7 143.7c.2.4.2.8 0 1.2-.1.4-.4.7-.9.8-.1.1-.2.1-.3.1s-.2 0-.3 0c-.3 0-.6-.1-.9-.2-.3-.2-.5-.4-.6-.7l-5.5-12.5h-4.7v11.9c0 .5-.2.8-.5 1.1s-.7.5-1.2.5c-.4 0-.8-.1-1.1-.5-.3-.3-.5-.7-.5-1.1v-30.6c0-.5.2-.8.5-1.2.3-.3.7-.5 1.1-.5h6.8c1 0 1.9.3 2.8.9s1.7 1.4 2.4 2.5c.6 1 1.1 2 1.4 3.2s.5 2.4.5 3.6-.2 2.5-.5 3.6c-.3 1.2-.8 2.3-1.4 3.2-.8 1.1-1.6 2-2.5 2.5zm-13.2-14.4h5.1c.4 0 .8-.2 1.2-.5s.8-.8 1.2-1.4c.5-.7.8-1.5 1.1-2.4s.4-1.8.4-2.7-.1-1.8-.4-2.7-.6-1.7-1.1-2.4c-.4-.6-.8-1.1-1.2-1.4s-.9-.5-1.2-.5h-5.1z"/><path d="m229.8 112.6c.3.3.5.7.5 1.2 0 .4-.2.8-.5 1.1s-.7.5-1.1.5h-5.5v29c0 .5-.2.8-.5 1.1s-.7.5-1.1.5-.8-.1-1.1-.5c-.3-.3-.5-.7-.5-1.1v-29h-5.6c-.5 0-.8-.2-1.2-.5-.3-.3-.5-.7-.5-1.1 0-.5.2-.8.5-1.2.3-.3.7-.5 1.2-.5h14.3c.4 0 .8.2 1.1.5z"/><path d="m130.7 53v149.7h114v-149.7zm112.4 1.6v103.1h-110.7v-103.1zm-110.7 146.4v-41.8h110.7v41.8z"/></g></svg>