<?xml version="1.0" encoding="UTF-8"?> <svg xmlns="http://www.w3.org/2000/svg" viewBox="0 0 376 250"><path d="m0 0h376v250h-376z"></path><g fill="#f9f9f9"><path d="m128.7 191.3h-2.1v-2.7h2.1c1 0 1.5.6 1.5 1.3-.1.8-.5 1.4-1.5 1.4m-2.1-6.5h2c1 0 1.4.6 1.4 1.3s-.5 1.3-1.4 1.3h-2zm3.4 3.2c1-.5 1.3-1.2 1.3-2 0-1.4-.9-2.4-2.7-2.4h-3.5v9h3.8c1.3 0 2.5-1 2.5-2.5.1-1-.4-1.9-1.4-2.1"></path><path d="m139.1 183.6h-1.3v9h5.7v-1.3h-4.4z"></path><path d="m151.7 189.4 1.3-3.9 1.3 3.9zm.8-5.8-3.3 9h1.4l.7-2h3.4l.7 2h1.4l-3.3-9z"></path><path d="m165.5 184.9c.9 0 1.5.6 1.7 1.3h1.4c-.3-1.5-1.4-2.7-3.1-2.7-1.4 0-2.4.8-2.8 1.6-.3.5-.4.8-.4 2.9 0 2.2.1 2.4.4 2.9.4.8 1.4 1.6 2.8 1.6 1.5 0 2.8-.9 3.1-2.6h-1.4c-.4.8-1 1.2-1.7 1.2-.6 0-1.1-.3-1.4-.7-.4-.5-.5-.7-.5-2.5s.1-2.1.5-2.5c.3-.2.8-.5 1.4-.5"></path><path d="m181.4 183.6h-1.6l-3.7 4.6h-.1v-4.6h-1.3v9h1.3v-2.8l1.6-1.6 2.5 4.4h1.6l-3.2-5.4z"></path><path d="m196.8 183.6h-1.3v9h5.7v-1.3h-4.4z"></path><path d="m209.4 189.4 1.3-3.9 1.3 3.9zm.8-5.8-3.3 9h1.4l.7-2h3.4l.7 2h1.4l-3.3-9z"></path><path d="m224 191.3h-2.1v-2.7h2.1c1 0 1.5.6 1.5 1.3 0 .8-.5 1.4-1.5 1.4m-2.1-6.5h2c1 0 1.4.6 1.4 1.3s-.5 1.3-1.4 1.3h-2zm3.5 3.2c1-.5 1.3-1.2 1.3-2 0-1.4-.9-2.4-2.7-2.4h-3.5v9h3.8c1.3 0 2.5-1 2.5-2.5 0-1-.4-1.9-1.4-2.1"></path><path d="m233.1 192.6h5.7v-1.3h-4.3v-2.6h3.7v-1.2h-3.7v-2.6h4.3v-1.3h-5.7z"></path><path d="m246.4 183.6h-1.4v9h5.7v-1.3h-4.3z"></path><path d="m124.7 175.8h126.9v1.3h-126.9z"></path><path d="m214.7 134.1 12.4 9h14.6l-7.6-23.3 17.2-13.2v-7.2l-23.9 17.9 8.2 25.1-20.9-15.8-21.4 15.8 7.8-26-22.7-16.9h27.8l7.4-24.1 7.7 24.1h29.9v-6.4h-26.1l-5.9-18.1h-62.2c-3.3 0-6.1 2-7.3 4.9-.2.3-.3.7-.4 1l-6.4 20.2 24.8 18.6h-24.8-.1c-3.4 0-6.3 2.2-7.3 5.2-.4 1-.7 2.1-1.2 3.7-1.6 4.8-3.1 9.7-4.5 14.5h73.6z"></path><path d="m199 168.5 3.6-15.9h4.6l1.1-4.9h-15.3l-1.1 4.9c-.7-2.9-3.1-4.9-6.4-4.9h-11l-4.7 20.8h6.1l3.6-15.9h3.4c1.6 0 2.7 1.3 2.4 3-.3 1.6-2.3 3.1-3.9 3.1-.7 0-1.8-.1-2.3-.1l-1.2 5.1c.9.8 5.2 4.2 10.4 4.9l1.2-5.4c-.7 0-2.9-.9-3.7-1.4 2.9-.9 5.6-2.9 6.2-6.1.2-1 .2-2-.1-3h4.6l-3.5 15.9h6z"></path><path d="m139.6 165.6c2.5-3.1 2.2-7 0-8.5-.7-.6-3-2-4.1-2.5s-1.1-2.1.7-2.1h10.6l-3.5 15.9h6.1l3.5-15.9h4.2l1.1-4.9h-22.3c-2.1 0-6.6 1.3-7.4 4.8-.9 4.3 1 5.4 2.4 6.2 1.5.8 4.6 2.1 4.3 3.3-.4 1.2-2.2 1.6-4 1.6-1.3 0-3.4 0-5-.1l-1.1 4.9c4.5.4 12 .5 14.5-2.7"></path><path d="m169.6 168.5c.6-4.7-.2-16.3-2.6-20.8h-5.4c-3.2 2.4-10.6 15.7-11.9 20.8h5.9c.8-3.3 4.2-9.9 7.3-14.9.4 2.3.7 4.7.9 7.2h-4c-.8 1.6-1.5 3.1-2.1 4.4h6.3c0 1.3-.1 2.4-.2 3.3z"></path><path d="m246.2 162.6c1.4 0 2.5 1.1 2.5 2.4 0 1.4-1.1 2.5-2.5 2.5s-2.5-1.1-2.5-2.5c0-1.3 1.1-2.4 2.5-2.4m0 5.5c1.7 0 3.1-1.4 3.1-3.1s-1.4-3-3.1-3-3.1 1.4-3.1 3c0 1.7 1.4 3.1 3.1 3.1"></path><path d="m245.6 163.7h.9c.4 0 .8.1.8.5 0 .6-.7.5-1.2.5h-.6v-1zm0 1.5h.6l1 1.6h.6l-1.1-1.6c.6 0 1.1-.3 1.1-.9 0-.3-.1-.6-.4-.7s-.6-.2-.9-.2h-1.5v3.4h.5v-1.6z"></path><path d="m213.6 158.5h8.9l1.1-4.9h-8.9z"></path><path d="m243.2 155.5c.8-4.3-2.1-7.9-6.5-7.9h-11l-3.6 15.9h-10.6l2.5-11h8.8l1.1-4.9h-14.9l-4.7 20.8h16.7 1.7 4.4l3.6-15.9h3.4c1.6 0 2.7 1.3 2.5 3-.3 1.6-2.3 3.1-3.9 3.1-.7 0-1.8-.1-2.3-.2l-1.2 5.1c.9.8 5.2 4.2 10.4 4.9l1.2-5.4c-.7 0-2.9-.9-3.7-1.4 2.9-.8 5.6-2.9 6.1-6.1"></path></g></svg> 