<?xml version="1.0" encoding="UTF-8"?> <svg xmlns="http://www.w3.org/2000/svg" viewBox="0 0 376 250"><path d="m0 0h376v250h-376z" fill="#519ba8"></path><g clip-rule="evenodd" fill-rule="evenodd"><path d="m152.8 91.4 22.9 27.1-24.4 29.6h30.2l11.4-18.2v-22.5l-11.4-16z" fill="#233149"></path><path d="m113 118.2c0 44 36.1 80.1 79.9 80.1v-24.9c-30.5 0-55.2-24.6-55.2-54.8 0-30.5 24.7-55.1 55.2-55.1v-25.1c-43.8 0-79.9 36-79.9 79.8z" fill="#233149"></path><path d="m192.6 107.4 11.4-16h28.7l-22.8 27.1 24.4 29.6h-30.3l-11.4-18.2zm0-44c30.5 0 55.2 24.6 55.2 55.1 0 30.2-24.7 54.8-55.2 54.8z" fill="#215160"></path><path d="m250.9 173.3-12.6-15.1 11.7-16 4 4.9-6.5 9.3 1.3 1.8 6.5-9.5 2.7 3.4-6.5 9.2 1.6 1.8 6.5-9.2 3.4 4z" fill="#f78537"></path><path d="m244.1 179.5c-1.2 1.2-2.8 2.2-3.7 3.1-1.2 1.2-2.8 1.8-3.7 2.8-2.8 1.8-4.9 3.4-6.5 3.4-1.9 0-3.7-.3-4.6-1.8-.3-.3-.6-.9-.9-1.2s-.6-.9-.9-1.5c-.6-1.2-1.2-2.5-1.5-3.7-.3-.9-.6-2.2-.6-3.1 0-1.2 0-2.5.3-3.4s.6-1.8 1.2-2.5c.6-.9 1.2-1.5 1.9-2.2.9-.9 1.9-1.8 2.8-2.5 1.2-.9 2.5-1.8 4-2.8 1.5-.9 3.1-1.5 4.9-2.5l2.5 5.5c-1.2.9-2.5 1.5-3.4 2.2-.9.6-1.9 1.2-2.5 1.8-.9.6-1.9 1.5-2.5 2.2-.3.6-.6 1.2-.9 1.8 0 .9 0 1.8.3 2.8.3.9.9 1.8 1.2 2.8.6.6 1.2.9 1.9.9.6 0 1.2-.3 2.2-.9.3-.3.3-.3.3-.3l-2.2-4.9 6.8-5.2z" fill="#f78537"></path><path d="m196.6 198.3 6.2-20.6 13.6-3.7 4.9 19.1-7.7 2.5-.9-3.1-6.5 1.8-.9 3.1zm10.8-9.3 4.3-1.2-1.9-7.1z" fill="#f78537"></path></g></svg> 